<svg width="173" height="29" viewBox="0 0 173 29" fill="none" xmlns="http://www.w3.org/2000/svg">
<path d="M0.68 25.96C0.653333 25.9067 0.6 25.76 0.52 25.52C0.466667 25.3067 0.413333 25.08 0.36 24.84C0.306667 24.6 0.253333 24.3733 0.2 24.16C0.146667 23.9467 0.12 23.8 0.12 23.72V11.32C0.12 11.1333 0.2 11 0.36 10.92C0.52 10.8133 0.693333 10.76 0.88 10.76C1.06667 10.7333 1.25333 10.7333 1.44 10.76C1.62667 10.76 1.74667 10.7733 1.8 10.8C1.77333 11.0933 1.76 11.5333 1.76 12.12C1.76 12.68 1.74667 13.3333 1.72 14.08C1.72 14.8267 1.72 15.6133 1.72 16.44C1.74667 17.24 1.76 18.0133 1.76 18.76V20.76C1.76 21.3467 1.77333 21.7733 1.8 22.04C1.85333 23.2667 2.02667 24.12 2.32 24.6C2.61333 25.0533 2.96 25.2667 3.36 25.24C3.78667 25.2133 4.22667 24.9867 4.68 24.56C5.16 24.1067 5.6 23.5733 6 22.96C6.4 22.32 6.73333 21.68 7 21.04C7.29333 20.3733 7.44 19.7733 7.44 19.24V10.8H9.68C9.65333 11.3067 9.6 11.96 9.52 12.76C9.46667 13.56 9.42667 14.4267 9.4 15.36C9.4 16.2933 9.41333 17.24 9.44 18.2C9.49333 19.16 9.6 20.0667 9.76 20.92C9.92 21.7733 10.1467 22.52 10.44 23.16C10.76 23.7733 11.16 24.2133 11.64 24.48C12.1467 24.7467 12.7333 24.8 13.4 24.64C14.0933 24.4533 14.92 23.96 15.88 23.16C16.0667 23.72 15.9867 24.2667 15.64 24.8C15.2933 25.3067 14.84 25.7467 14.28 26.12C13.72 26.52 13.1067 26.8133 12.44 27C11.8 27.1867 11.2533 27.2267 10.8 27.12C10.7467 27.0933 10.6533 27 10.52 26.84C10.3867 26.7067 10.2933 26.6 10.24 26.52C10.16 26.36 10.0133 26.0667 9.8 25.64C9.58667 25.24 9.36 24.8 9.12 24.32C8.88 23.84 8.65333 23.3867 8.44 22.96C8.25333 22.5333 8.10667 22.2267 8 22.04C7.89333 22.28 7.68 22.6533 7.36 23.16C7.06667 23.64 6.70667 24.16 6.28 24.72C5.85333 25.28 5.4 25.8 4.92 26.28C4.44 26.76 3.94667 27.0933 3.44 27.28C2.96 27.4933 2.48 27.52 2 27.36C1.52 27.2 1.08 26.7333 0.68 25.96ZM15.8503 27.12C15.877 26.8267 15.8903 26.3333 15.8903 25.64V21.24C15.8903 20.5467 15.877 20.0533 15.8503 19.76C15.8236 19.6533 15.7836 19.3867 15.7303 18.96C15.677 18.5333 15.6103 18.0267 15.5303 17.44C15.4503 16.8267 15.3703 16.2 15.2903 15.56C15.2103 14.92 15.117 14.32 15.0103 13.76C14.9303 13.1733 14.8636 12.6667 14.8103 12.24C14.757 11.7867 14.717 11.48 14.6903 11.32C14.6636 11.0267 14.6503 10.72 14.6503 10.4C14.677 10.08 14.7436 9.8 14.8503 9.56C14.957 9.32 15.117 9.16 15.3303 9.08C15.5703 8.97333 15.917 8.98667 16.3703 9.12C16.397 9.57333 16.437 10.1067 16.4903 10.72C16.5703 11.3333 16.6503 11.9733 16.7303 12.64C16.8103 13.3067 16.917 13.9733 17.0503 14.64C17.1836 15.28 17.3436 15.88 17.5303 16.44C17.797 15.6133 18.0636 14.8933 18.3303 14.28C18.6236 13.6667 18.9436 13.1067 19.2903 12.6C19.637 12.0933 20.0236 11.6 20.4503 11.12C20.877 10.64 21.397 10.16 22.0103 9.68C22.757 9.04 23.3836 8.78667 23.8903 8.92C24.397 9.02667 24.8103 9.4 25.1303 10.04C25.477 10.6533 25.757 11.4533 25.9703 12.44C26.2103 13.4 26.4103 14.4267 26.5703 15.52C26.7303 16.6133 26.9036 17.68 27.0903 18.72C27.277 19.76 27.5036 20.6667 27.7703 21.44C28.0636 22.2133 28.4236 22.7733 28.8503 23.12C29.277 23.4667 29.8103 23.48 30.4503 23.16C30.637 23.7467 30.6636 24.1733 30.5303 24.44C30.397 24.7067 30.157 24.8533 29.8103 24.88C29.4636 24.9067 29.0636 24.8267 28.6103 24.64C28.1836 24.4267 27.7436 24.1467 27.2903 23.8C26.8636 23.4533 26.477 23.0267 26.1303 22.52C25.7836 22.0133 25.5303 21.48 25.3703 20.92C25.317 20.5467 25.2503 19.92 25.1703 19.04C25.0903 18.1333 24.9836 17.1733 24.8503 16.16C24.7436 15.1467 24.5436 14.1467 24.2503 13.16C23.9836 12.1733 23.6103 11.3867 23.1303 10.8L20.8503 13C20.797 13.1067 20.637 13.5067 20.3703 14.2C20.1303 14.8667 19.8636 15.6533 19.5703 16.56C19.277 17.4667 18.9836 18.3867 18.6903 19.32C18.397 20.2267 18.197 20.96 18.0903 21.52C18.037 21.7067 17.9703 22.0667 17.8903 22.6C17.837 23.1067 17.7703 23.6667 17.6903 24.28C17.637 24.8933 17.597 25.4667 17.5703 26C17.5436 26.5333 17.5303 26.9067 17.5303 27.12C17.3436 27.52 17.0636 27.72 16.6903 27.72C16.317 27.72 16.037 27.52 15.8503 27.12ZM32.4966 27.12C31.9899 26.72 31.6032 26.1733 31.3366 25.48C31.0966 24.7867 30.9632 24.1333 30.9366 23.52C30.9366 22.9067 31.0166 22.4267 31.1766 22.08C31.3632 21.7333 31.6166 21.72 31.9366 22.04C31.8832 23.2133 32.0966 24.1067 32.5766 24.72C33.0566 25.3067 33.6299 25.68 34.2966 25.84C34.9632 26 35.6832 25.96 36.4566 25.72C37.2299 25.48 37.8832 25.1067 38.4166 24.6C38.9766 24.0933 39.3632 23.48 39.5766 22.76C39.7899 22.0133 39.6699 21.2267 39.2166 20.4C38.6832 19.7333 38.0566 19.1067 37.3366 18.52C36.6432 17.9333 35.9366 17.3467 35.2166 16.76C34.4966 16.1733 33.8032 15.5733 33.1366 14.96C32.4699 14.3467 31.8832 13.6933 31.3766 13C31.3232 12.9467 31.2966 12.8667 31.2966 12.76C31.2966 12.6267 31.3232 12.5333 31.3766 12.48C31.5366 12.2933 31.7499 12 32.0166 11.6C32.2832 11.1733 32.6032 10.6933 32.9766 10.16C33.3499 9.62667 33.7366 9.08 34.1366 8.52C34.5632 7.96 34.9632 7.42667 35.3366 6.92C35.7099 6.38667 36.0299 5.92 36.2966 5.52C36.5899 5.09333 36.8166 4.78667 36.9766 4.6C37.2699 4.2 37.5766 3.97333 37.8966 3.92C38.2166 3.86667 38.6566 3.90666 39.2166 4.04C39.1899 4.14666 39.1099 4.34667 38.9766 4.64C38.8432 4.90667 38.7366 5.08 38.6566 5.16C38.4966 5.42667 38.1766 5.88 37.6966 6.52C37.2166 7.16 36.6966 7.85333 36.1366 8.6C35.6032 9.32 35.0966 10 34.6166 10.64C34.1632 11.2533 33.8432 11.68 33.6566 11.92C33.4699 12.16 33.5232 12.4533 33.8166 12.8C34.1366 13.1467 34.5632 13.5467 35.0966 14C35.6566 14.4267 36.2966 14.9067 37.0166 15.44C37.7366 15.9467 38.4166 16.5067 39.0566 17.12C39.6966 17.7333 40.2299 18.3867 40.6566 19.08C41.1099 19.7733 41.3499 20.52 41.3766 21.32C41.4299 22.0933 41.2032 22.92 40.6966 23.8C40.2166 24.6533 39.3499 25.56 38.0966 26.52C37.7232 26.84 37.2966 27.1067 36.8166 27.32C36.3632 27.5333 35.8832 27.6667 35.3766 27.72C34.8966 27.8 34.4032 27.8 33.8966 27.72C33.3899 27.64 32.9232 27.44 32.4966 27.12ZM43.4469 27.12C43.0202 26.2133 42.7802 25.2933 42.7269 24.36C42.7002 23.4267 42.7535 22.48 42.8869 21.52C42.9135 21.2 42.9669 20.7467 43.0469 20.16C43.1269 19.5467 43.2202 18.88 43.3269 18.16C43.4335 17.4133 43.5535 16.6267 43.6869 15.8C43.8202 14.9733 43.9402 14.2 44.0469 13.48C44.1535 12.7333 44.2469 12.08 44.3269 11.52C44.4335 10.96 44.5135 10.5333 44.5669 10.24C44.7269 9.33333 44.9135 8.56 45.1269 7.92C45.3402 7.28 45.6202 6.78667 45.9669 6.44C46.3402 6.09333 46.8069 5.90667 47.3669 5.88C47.9535 5.85333 48.7002 6 49.6069 6.32C49.7135 6.34667 49.8335 6.44 49.9669 6.6C50.1002 6.73333 50.1669 6.81333 50.1669 6.84C50.2202 7.13333 50.3002 7.57333 50.4069 8.16C50.5402 8.74667 50.6735 9.41333 50.8069 10.16C50.9669 10.9067 51.1269 11.68 51.2869 12.48C51.4735 13.28 51.6335 14.0533 51.7669 14.8C51.9002 15.5467 52.0202 16.2133 52.1269 16.8C52.2602 17.3867 52.3669 17.8267 52.4469 18.12C52.7669 19.64 53.1669 20.7067 53.6469 21.32C54.1269 21.9067 54.6335 22.2133 55.1669 22.24C55.7002 22.2667 56.2602 22.0933 56.8469 21.72C57.4335 21.32 57.9935 20.9067 58.5269 20.48C59.0869 20.0533 59.6202 19.6933 60.1269 19.4C60.6335 19.1067 61.0602 19.0533 61.4069 19.24C61.4069 19.64 61.3135 20.04 61.1269 20.44C60.9402 20.8133 60.7002 21.1733 60.4069 21.52C60.1402 21.84 59.8469 22.1467 59.5269 22.44C59.2069 22.7333 58.9135 22.9733 58.6469 23.16C57.4202 23.96 56.4069 24.3867 55.6069 24.44C54.8069 24.4667 54.1135 24.28 53.5269 23.88C52.9669 23.48 52.5135 22.92 52.1669 22.2C51.8202 21.48 51.5135 20.76 51.2469 20.04C51.0069 19.2933 50.7535 18.64 50.4869 18.08C50.2469 17.4933 49.9535 17.12 49.6069 16.96C49.5269 17.2533 49.3802 17.7467 49.1669 18.44C48.9802 19.1067 48.7669 19.84 48.5269 20.64C48.2869 21.4133 48.0602 22.1467 47.8469 22.84C47.6335 23.5333 47.4735 24.0133 47.3669 24.28C47.3402 24.3867 47.2602 24.6 47.1269 24.92C46.9935 25.2133 46.8069 25.5333 46.5669 25.88C46.3535 26.2533 46.1135 26.6 45.8469 26.92C45.5802 27.2667 45.3002 27.5333 45.0069 27.72C44.7402 27.9067 44.4602 27.96 44.1669 27.88C43.9002 27.8267 43.6602 27.5733 43.4469 27.12ZM45.1269 17.56C45.1002 17.8267 45.0735 18.3067 45.0469 19C45.0469 19.6933 45.0469 20.4267 45.0469 21.2C45.0469 21.9467 45.0469 22.68 45.0469 23.4C45.0735 24.0933 45.1002 24.5733 45.1269 24.84C45.8735 23.6933 46.5402 22.36 47.1269 20.84C47.7402 19.32 48.2069 17.7467 48.5269 16.12C48.8469 14.4667 48.9669 12.84 48.8869 11.24C48.8335 9.64 48.5269 8.17333 47.9669 6.84C47.5669 7.53333 47.2069 8.38667 46.8869 9.4C46.5669 10.4133 46.2869 11.44 46.0469 12.48C45.8335 13.52 45.6335 14.5067 45.4469 15.44C45.2869 16.3733 45.1802 17.08 45.1269 17.56ZM59.5731 25.96C59.5465 25.9067 59.4931 25.7467 59.4131 25.48C59.3598 25.24 59.2931 24.9733 59.2131 24.68C59.1598 24.36 59.1065 24.0667 59.0531 23.8C59.0265 23.5067 59.0131 23.2933 59.0131 23.16V7.44C59.0131 7.22667 59.1065 7.06667 59.2931 6.96C59.4798 6.85333 59.6931 6.8 59.9331 6.8C60.1998 6.8 60.4265 6.81333 60.6131 6.84C60.8265 6.84 60.9465 6.84 60.9731 6.84V24.28C60.9731 24.6533 61.0931 24.96 61.3331 25.2C61.5731 25.44 61.8531 25.6267 62.1731 25.76C62.4931 25.8933 62.8265 25.9733 63.1731 26C63.5198 26.0533 63.8131 26.04 64.0531 25.96C64.3465 26.4133 64.3331 26.7733 64.0131 27.04C63.7198 27.3333 63.2798 27.4933 62.6931 27.52C62.1331 27.5467 61.5465 27.44 60.9331 27.2C60.3198 26.96 59.8665 26.5467 59.5731 25.96ZM58.4531 1.76C58.4531 1.14667 58.6931 0.759999 59.1731 0.599999C59.6798 0.413332 60.1998 0.426665 60.7331 0.639999V2.36C60.6531 2.38667 60.5331 2.41333 60.3731 2.44C60.2131 2.44 60.0398 2.44 59.8531 2.44C59.6665 2.44 59.4931 2.44 59.3331 2.44C59.1731 2.41333 59.0665 2.38667 59.0131 2.36C58.9331 2.33333 58.8131 2.25333 58.6531 2.12C58.5198 1.96 58.4531 1.84 58.4531 1.76ZM66.0575 25.96C65.8175 25.4533 65.6575 24.7733 65.5775 23.92C65.5242 23.0667 65.5375 22.1067 65.6175 21.04C65.7242 19.9467 65.8975 18.8133 66.1375 17.64C66.4042 16.44 66.7242 15.32 67.0975 14.28C67.4708 13.2133 67.8975 12.24 68.3775 11.36C68.8575 10.48 69.3908 9.8 69.9775 9.32C70.5908 8.84 71.2175 8.61333 71.8575 8.64C72.5242 8.64 73.2175 8.98667 73.9375 9.68L75.0575 0.639999C75.0842 0.559998 75.1642 0.453331 75.2975 0.319998C75.4575 0.159999 75.5642 0.079999 75.6175 0.079999C75.7242 0.079999 75.8308 0.106665 75.9375 0.159998C76.0708 0.213332 76.1908 0.266666 76.2975 0.319998C76.4308 0.346665 76.5375 0.399998 76.6175 0.479999C76.6975 0.559999 76.7375 0.613333 76.7375 0.639999V16.44C76.7375 17.6133 76.9508 18.64 77.3775 19.52C77.8042 20.3733 78.3375 21 78.9775 21.4C79.6442 21.8 80.4175 21.9333 81.2975 21.8C82.1775 21.6667 83.0975 21.2 84.0575 20.4C84.3775 20.4 84.5242 20.5333 84.4975 20.8C84.4708 21.0667 84.3375 21.3867 84.0975 21.76C83.8842 22.1067 83.5642 22.48 83.1375 22.88C82.7108 23.2533 82.2442 23.5733 81.7375 23.84C81.2308 24.08 80.6842 24.2133 80.0975 24.24C79.5375 24.24 78.9908 24.0667 78.4575 23.72C78.0042 23.4267 77.6042 23.0933 77.2575 22.72C76.9108 22.32 76.6042 21.8933 76.3375 21.44C76.0708 20.9867 75.8175 20.5333 75.5775 20.08C75.3642 19.6 75.1908 19.1333 75.0575 18.68C74.9508 18.8667 74.7908 19.1467 74.5775 19.52C74.3908 19.8933 74.1642 20.3333 73.8975 20.84C73.6308 21.32 73.3642 21.8267 73.0975 22.36C72.8308 22.8667 72.5642 23.36 72.2975 23.84C72.0308 24.32 71.7908 24.7467 71.5775 25.12C71.3642 25.52 71.2042 25.8 71.0975 25.96C70.7775 26.5467 70.3908 26.9733 69.9375 27.24C69.5108 27.5333 69.0442 27.68 68.5375 27.68C68.0575 27.68 67.5908 27.5333 67.1375 27.24C66.7108 26.9733 66.3508 26.5467 66.0575 25.96ZM67.7375 24.84C67.7642 24.8933 67.8175 24.96 67.8975 25.04C67.9775 25.1467 68.0708 25.24 68.1775 25.32C68.3108 25.4267 68.4308 25.4933 68.5375 25.52C68.6708 25.5467 68.7908 25.5067 68.8975 25.4C69.9642 24.6 70.8175 23.6533 71.4575 22.56C72.1242 21.44 72.6575 20.2667 73.0575 19.04C73.4842 17.8133 73.8175 16.56 74.0575 15.28C74.2975 13.9733 74.5242 12.7467 74.7375 11.6C73.5642 11.44 72.5642 11.5333 71.7375 11.88C70.9108 12.2 70.2042 12.6933 69.6175 13.36C69.0575 14.0267 68.6175 14.8267 68.2975 15.76C67.9775 16.6933 67.7508 17.68 67.6175 18.72C67.4842 19.7333 67.4308 20.7733 67.4575 21.84C67.5108 22.9067 67.6042 23.9067 67.7375 24.84ZM110.168 25.96C109.874 25.4533 109.594 24.7467 109.328 23.84C109.088 22.9067 108.874 21.96 108.688 21C108.501 20.0133 108.354 19.1067 108.248 18.28C108.088 17.4533 107.981 16.8533 107.928 16.48C107.901 16.8533 107.781 17.4133 107.568 18.16C107.354 18.9333 107.088 19.76 106.768 20.64C106.448 21.4933 106.074 22.36 105.648 23.24C105.221 24.12 104.741 24.8667 104.208 25.48C103.674 26.12 103.101 26.56 102.488 26.8C101.901 27.04 101.288 26.9467 100.648 26.52C100.594 26.52 100.528 26.44 100.448 26.28C100.394 26.1467 100.341 25.9867 100.288 25.8C100.234 25.64 100.181 25.4667 100.128 25.28C100.101 25.0933 100.088 24.9467 100.088 24.84V11.32C99.7675 10.7067 99.5808 10.2133 99.5275 9.84C99.5008 9.44 99.5408 9.13333 99.6475 8.92C99.7808 8.70667 99.9542 8.57333 100.168 8.52C100.408 8.44 100.648 8.44 100.888 8.52C101.128 8.6 101.328 8.74667 101.488 8.96C101.674 9.14667 101.768 9.38667 101.768 9.68V23.16L102.368 24.84C103.408 24.0933 104.248 23.2 104.888 22.16C105.554 21.0933 106.061 19.96 106.408 18.76C106.754 17.5333 106.981 16.2933 107.088 15.04C107.221 13.76 107.314 12.52 107.368 11.32C107.474 11.32 107.621 11.3067 107.808 11.28C107.994 11.2533 108.168 11.2533 108.328 11.28C108.514 11.3067 108.674 11.3733 108.808 11.48C108.941 11.5867 109.034 11.7333 109.088 11.92L111.328 23.72L112.448 25.96C112.954 25.64 113.341 25.0533 113.608 24.2C113.874 23.32 114.061 22.2933 114.168 21.12C114.274 19.92 114.328 18.6267 114.328 17.24C114.354 15.8533 114.354 14.4667 114.328 13.08C114.328 11.6933 114.328 10.3733 114.328 9.12C114.354 7.86667 114.461 6.78667 114.648 5.88C114.834 4.97333 115.101 4.30667 115.448 3.88C115.821 3.42667 116.314 3.30667 116.928 3.52C117.381 3.62667 117.594 3.86666 117.568 4.24C117.541 4.58666 117.421 4.94667 117.208 5.32C116.994 5.69333 116.768 6.04 116.528 6.36C116.288 6.65333 116.154 6.81333 116.128 6.84V22.04C116.128 22.4667 116.034 22.9733 115.848 23.56C115.661 24.12 115.421 24.6533 115.128 25.16C114.834 25.6933 114.488 26.1733 114.088 26.6C113.688 27.0533 113.261 27.3467 112.808 27.48C112.381 27.64 111.941 27.6133 111.488 27.4C111.034 27.1867 110.594 26.7067 110.168 25.96ZM121.928 25.96C121.368 25.1867 121.035 24.3067 120.928 23.32C120.822 22.3333 120.822 21.3067 120.928 20.24C121.035 19.1467 121.208 18.0533 121.448 16.96C121.688 15.84 121.902 14.7733 122.088 13.76C122.275 12.72 122.368 11.76 122.368 10.88C122.395 9.97333 122.248 9.2 121.928 8.56C121.768 8.21333 121.528 8.05333 121.208 8.08C120.915 8.08 120.595 8.12 120.248 8.2C119.928 8.25333 119.608 8.28 119.288 8.28C118.968 8.25333 118.675 8.04 118.408 7.64C118.435 7.56 118.515 7.45333 118.648 7.32C118.782 7.18667 118.875 7.10667 118.928 7.08C120.875 6.78667 122.502 6.98667 123.808 7.68C125.115 8.34667 126.155 9.30667 126.928 10.56C127.728 11.7867 128.262 13.2 128.528 14.8C128.822 16.4 128.928 17.9867 128.848 19.56C128.768 21.1333 128.515 22.6 128.088 23.96C127.688 25.2933 127.168 26.32 126.528 27.04C125.915 27.7867 125.208 28.12 124.408 28.04C123.608 27.96 122.782 27.2667 121.928 25.96ZM123.608 24.84C123.635 24.8933 123.702 24.9733 123.808 25.08C123.915 25.1867 124.022 25.3067 124.128 25.44C124.235 25.5733 124.342 25.68 124.448 25.76C124.555 25.8667 124.635 25.9333 124.688 25.96C125.515 25.5067 126.115 24.8933 126.488 24.12C126.888 23.3467 127.115 22.4933 127.168 21.56C127.248 20.6 127.208 19.6 127.048 18.56C126.888 17.4933 126.662 16.48 126.368 15.52C126.075 14.5333 125.715 13.64 125.288 12.84C124.888 12.0133 124.515 11.3333 124.168 10.8C124.142 11.0933 124.088 11.5333 124.008 12.12C123.955 12.68 123.888 13.3333 123.808 14.08C123.755 14.8267 123.688 15.6133 123.608 16.44C123.528 17.24 123.448 18.0133 123.368 18.76C123.288 19.5067 123.208 20.1733 123.128 20.76C123.075 21.3467 123.035 21.7733 123.008 22.04C123.008 22.2533 123.022 22.5067 123.048 22.8C123.075 23.0667 123.115 23.3333 123.168 23.6C123.248 23.84 123.328 24.08 123.408 24.32C123.488 24.5333 123.555 24.7067 123.608 24.84ZM133.02 13.28V27.32C132.7 28.04 132.42 28.4 132.18 28.4C131.94 28.4267 131.727 28.1867 131.54 27.68C131.38 27.2 131.247 26.5067 131.14 25.6C131.06 24.72 131.007 23.7467 130.98 22.68C130.954 21.5867 130.94 20.4533 130.94 19.28C130.967 18.08 131.007 16.9333 131.06 15.84C131.114 14.7467 131.18 13.7467 131.26 12.84C131.367 11.9067 131.46 11.1733 131.54 10.64C131.647 10.1067 131.754 9.81333 131.86 9.76C131.967 9.70667 132.074 10.0133 132.18 10.68C132.874 10.1467 133.62 9.65333 134.42 9.2C135.22 8.72 136.047 8.32 136.9 8C137.754 7.68 138.62 7.48 139.5 7.4C140.38 7.32 141.22 7.4 142.02 7.64C142.127 7.93333 142.14 8.26667 142.06 8.64C141.98 8.98667 141.78 9.21333 141.46 9.32C141.114 9.26667 140.66 9.24 140.1 9.24C139.54 9.24 138.94 9.28 138.3 9.36C137.687 9.44 137.06 9.57333 136.42 9.76C135.78 9.94667 135.207 10.2 134.7 10.52C134.22 10.84 133.82 11.2267 133.5 11.68C133.18 12.1067 133.02 12.64 133.02 13.28ZM144.612 25.96C144.372 25.4533 144.212 24.7733 144.132 23.92C144.079 23.0667 144.092 22.1067 144.172 21.04C144.279 19.9467 144.452 18.8133 144.692 17.64C144.959 16.44 145.279 15.32 145.652 14.28C146.026 13.2133 146.452 12.24 146.932 11.36C147.412 10.48 147.946 9.8 148.532 9.32C149.146 8.84 149.772 8.61333 150.412 8.64C151.079 8.64 151.772 8.98667 152.492 9.68L153.612 0.639999C153.639 0.559998 153.719 0.453331 153.852 0.319998C154.012 0.159999 154.119 0.079999 154.172 0.079999C154.279 0.079999 154.386 0.106665 154.492 0.159998C154.626 0.213332 154.746 0.266666 154.852 0.319998C154.986 0.346665 155.092 0.399998 155.172 0.479999C155.252 0.559999 155.292 0.613333 155.292 0.639999V16.44C155.292 17.6133 155.506 18.64 155.932 19.52C156.359 20.3733 156.892 21 157.532 21.4C158.199 21.8 158.972 21.9333 159.852 21.8C160.732 21.6667 161.652 21.2 162.612 20.4C162.932 20.4 163.079 20.5333 163.052 20.8C163.026 21.0667 162.892 21.3867 162.652 21.76C162.439 22.1067 162.119 22.48 161.692 22.88C161.266 23.2533 160.799 23.5733 160.292 23.84C159.786 24.08 159.239 24.2133 158.652 24.24C158.092 24.24 157.546 24.0667 157.012 23.72C156.559 23.4267 156.159 23.0933 155.812 22.72C155.466 22.32 155.159 21.8933 154.892 21.44C154.626 20.9867 154.372 20.5333 154.132 20.08C153.919 19.6 153.746 19.1333 153.612 18.68C153.506 18.8667 153.346 19.1467 153.132 19.52C152.946 19.8933 152.719 20.3333 152.452 20.84C152.186 21.32 151.919 21.8267 151.652 22.36C151.386 22.8667 151.119 23.36 150.852 23.84C150.586 24.32 150.346 24.7467 150.132 25.12C149.919 25.52 149.759 25.8 149.652 25.96C149.332 26.5467 148.946 26.9733 148.492 27.24C148.066 27.5333 147.599 27.68 147.092 27.68C146.612 27.68 146.146 27.5333 145.692 27.24C145.266 26.9733 144.906 26.5467 144.612 25.96ZM146.292 24.84C146.319 24.8933 146.372 24.96 146.452 25.04C146.532 25.1467 146.626 25.24 146.732 25.32C146.866 25.4267 146.986 25.4933 147.092 25.52C147.226 25.5467 147.346 25.5067 147.452 25.4C148.519 24.6 149.372 23.6533 150.012 22.56C150.679 21.44 151.212 20.2667 151.612 19.04C152.039 17.8133 152.372 16.56 152.612 15.28C152.852 13.9733 153.079 12.7467 153.292 11.6C152.119 11.44 151.119 11.5333 150.292 11.88C149.466 12.2 148.759 12.6933 148.172 13.36C147.612 14.0267 147.172 14.8267 146.852 15.76C146.532 16.6933 146.306 17.68 146.172 18.72C146.039 19.7333 145.986 20.7733 146.012 21.84C146.066 22.9067 146.159 23.9067 146.292 24.84ZM163.161 27.12C162.654 26.72 162.267 26.1733 162.001 25.48C161.761 24.7867 161.627 24.1333 161.601 23.52C161.601 22.9067 161.681 22.4267 161.841 22.08C162.027 21.7333 162.281 21.72 162.601 22.04C162.547 23.2133 162.761 24.1067 163.241 24.72C163.721 25.3067 164.294 25.68 164.961 25.84C165.627 26 166.347 25.96 167.121 25.72C167.894 25.48 168.547 25.1067 169.081 24.6C169.641 24.0933 170.027 23.48 170.241 22.76C170.454 22.0133 170.334 21.2267 169.881 20.4C169.347 19.7333 168.721 19.1067 168.001 18.52C167.307 17.9333 166.601 17.3467 165.881 16.76C165.161 16.1733 164.467 15.5733 163.801 14.96C163.134 14.3467 162.547 13.6933 162.041 13C161.987 12.9467 161.961 12.8667 161.961 12.76C161.961 12.6267 161.987 12.5333 162.041 12.48C162.201 12.2933 162.414 12 162.681 11.6C162.947 11.1733 163.267 10.6933 163.641 10.16C164.014 9.62667 164.401 9.08 164.801 8.52C165.227 7.96 165.627 7.42667 166.001 6.92C166.374 6.38667 166.694 5.92 166.961 5.52C167.254 5.09333 167.481 4.78667 167.641 4.6C167.934 4.2 168.241 3.97333 168.561 3.92C168.881 3.86667 169.321 3.90666 169.881 4.04C169.854 4.14666 169.774 4.34667 169.641 4.64C169.507 4.90667 169.401 5.08 169.321 5.16C169.161 5.42667 168.841 5.88 168.361 6.52C167.881 7.16 167.361 7.85333 166.801 8.6C166.267 9.32 165.761 10 165.281 10.64C164.827 11.2533 164.507 11.68 164.321 11.92C164.134 12.16 164.187 12.4533 164.481 12.8C164.801 13.1467 165.227 13.5467 165.761 14C166.321 14.4267 166.961 14.9067 167.681 15.44C168.401 15.9467 169.081 16.5067 169.721 17.12C170.361 17.7333 170.894 18.3867 171.321 19.08C171.774 19.7733 172.014 20.52 172.041 21.32C172.094 22.0933 171.867 22.92 171.361 23.8C170.881 24.6533 170.014 25.56 168.761 26.52C168.387 26.84 167.961 27.1067 167.481 27.32C167.027 27.5333 166.547 27.6667 166.041 27.72C165.561 27.8 165.067 27.8 164.561 27.72C164.054 27.64 163.587 27.44 163.161 27.12Z" fill="#7F9179"/>
</svg>
